<svg xmlns="http://www.w3.org/2000/svg" width="1080" height="1600" viewBox="0 0 1080 1600">
<rect width="1080" height="1600" fill="#f7f1e5"/>
<circle cx="930" cy="50" r="190" fill="#006241" opacity=".13"/>
<rect x="45" y="45" width="990" height="250" rx="42" fill="#006241"/>
<text x="92" y="104" fill="#f6d989" font-family="Arial, sans-serif" font-size="34" font-weight="900" letter-spacing="4">DUTY ROSTER · DOMINGO</text>
<text x="95" y="185" fill="white" font-family="Arial, sans-serif" font-size="76" font-weight="900">🚗 DRIVE THRU</text>
<text x="95" y="245" fill="#e7f3ee" font-family="Arial, sans-serif" font-size="31" font-weight="800">Tiempo sugerido: 10 min · Checklist visual del día</text>
<circle cx="925" cy="170" r="70" fill="white"/><text x="925" y="197" text-anchor="middle" fill="#003b2f" font-family="Arial" font-size="80">✓</text>
<text x="65" y="382" fill="#003b2f" font-family="Arial, sans-serif" font-size="56" font-weight="900">¿Qué debo validar hoy?</text>
<rect x="65" y="430" width="950" height="128" rx="28" fill="#fffaf0" stroke="#d3e6dc" stroke-width="3"/>
<text x="100" y="475" fill="#003b2f" font-family="Arial" font-size="32" font-weight="900">🚗 Ventana y Servicio</text>
<circle cx="107" cy="505" r="10" fill="#00754a"/><text x="107" y="511" text-anchor="middle" fill="white" font-family="Arial" font-size="15" font-weight="900">✓</text>
<text x="130" y="512" fill="#17483d" font-family="Arial" font-size="25" font-weight="800">¿Zona de despacho y registradora limpias?</text>
<circle cx="107" cy="536" r="10" fill="#00754a"/><text x="107" y="542" text-anchor="middle" fill="white" font-family="Arial" font-size="15" font-weight="900">✓</text>
<text x="130" y="543" fill="#17483d" font-family="Arial" font-size="25" font-weight="800">¿Ventanilla cerrada fuera de transacciones?</text>
<circle cx="107" cy="567" r="10" fill="#00754a"/><text x="107" y="573" text-anchor="middle" fill="white" font-family="Arial" font-size="15" font-weight="900">✓</text>
<text x="130" y="574" fill="#17483d" font-family="Arial" font-size="25" font-weight="800">¿Flujo libre de obstáculos?</text>
<rect x="65" y="582" width="950" height="128" rx="28" fill="#eaf4ef" stroke="#d3e6dc" stroke-width="3"/>
<text x="100" y="627" fill="#003b2f" font-family="Arial" font-size="32" font-weight="900">🥤 Smallwares</text>
<circle cx="107" cy="657" r="10" fill="#00754a"/><text x="107" y="663" text-anchor="middle" fill="white" font-family="Arial" font-size="15" font-weight="900">✓</text>
<text x="130" y="664" fill="#17483d" font-family="Arial" font-size="25" font-weight="800">¿Vasos, tapas y cubos limpios?</text>
<circle cx="107" cy="688" r="10" fill="#00754a"/><text x="107" y="694" text-anchor="middle" fill="white" font-family="Arial" font-size="15" font-weight="900">✓</text>
<text x="130" y="695" fill="#17483d" font-family="Arial" font-size="25" font-weight="800">¿Almacenados cubiertos o invertidos?</text>
<circle cx="107" cy="719" r="10" fill="#00754a"/><text x="107" y="725" text-anchor="middle" fill="white" font-family="Arial" font-size="15" font-weight="900">✓</text>
<text x="130" y="726" fill="#17483d" font-family="Arial" font-size="25" font-weight="800">¿Superficies listas para operación?</text>
<rect x="65" y="734" width="950" height="128" rx="28" fill="#fffaf0" stroke="#d3e6dc" stroke-width="3"/>
<text x="100" y="779" fill="#003b2f" font-family="Arial" font-size="32" font-weight="900">🧼 Imagen Exterior</text>
<circle cx="107" cy="809" r="10" fill="#00754a"/><text x="107" y="815" text-anchor="middle" fill="white" font-family="Arial" font-size="15" font-weight="900">✓</text>
<text x="130" y="816" fill="#17483d" font-family="Arial" font-size="25" font-weight="800">¿Menús, bocina y señalizaciones limpias?</text>
<circle cx="107" cy="840" r="10" fill="#00754a"/><text x="107" y="846" text-anchor="middle" fill="white" font-family="Arial" font-size="15" font-weight="900">✓</text>
<text x="130" y="847" fill="#17483d" font-family="Arial" font-size="25" font-weight="800">¿Carril libre de chicles, grasa y basura?</text>
<circle cx="107" cy="871" r="10" fill="#00754a"/><text x="107" y="877" text-anchor="middle" fill="white" font-family="Arial" font-size="15" font-weight="900">✓</text>
<text x="130" y="878" fill="#17483d" font-family="Arial" font-size="25" font-weight="800">¿Posters, paredes y lámparas en buen estado?</text>
<rect x="65" y="886" width="950" height="128" rx="28" fill="#eaf4ef" stroke="#d3e6dc" stroke-width="3"/>
<text x="100" y="931" fill="#003b2f" font-family="Arial" font-size="32" font-weight="900">❄️ Refrigeración</text>
<circle cx="107" cy="961" r="10" fill="#00754a"/><text x="107" y="967" text-anchor="middle" fill="white" font-family="Arial" font-size="15" font-weight="900">✓</text>
<text x="130" y="968" fill="#17483d" font-family="Arial" font-size="25" font-weight="800">¿Refrigerador limpio por dentro y fuera?</text>
<circle cx="107" cy="992" r="10" fill="#00754a"/><text x="107" y="998" text-anchor="middle" fill="white" font-family="Arial" font-size="15" font-weight="900">✓</text>
<text x="130" y="999" fill="#17483d" font-family="Arial" font-size="25" font-weight="800">¿Gomas y estantes en buen estado?</text>
<circle cx="107" cy="1023" r="10" fill="#00754a"/><text x="107" y="1029" text-anchor="middle" fill="white" font-family="Arial" font-size="15" font-weight="900">✓</text>
<text x="130" y="1030" fill="#17483d" font-family="Arial" font-size="25" font-weight="800">Sin residuos de pegamento</text>
<rect x="65" y="1038" width="950" height="128" rx="28" fill="#fffaf0" stroke="#d3e6dc" stroke-width="3"/>
<text x="100" y="1083" fill="#003b2f" font-family="Arial" font-size="32" font-weight="900">🌟 Primera impresión</text>
<circle cx="107" cy="1113" r="10" fill="#00754a"/><text x="107" y="1119" text-anchor="middle" fill="white" font-family="Arial" font-size="15" font-weight="900">✓</text>
<text x="130" y="1120" fill="#17483d" font-family="Arial" font-size="25" font-weight="800">¿Jardineras y banquetas limpias?</text>
<circle cx="107" cy="1144" r="10" fill="#00754a"/><text x="107" y="1150" text-anchor="middle" fill="white" font-family="Arial" font-size="15" font-weight="900">✓</text>
<text x="130" y="1151" fill="#17483d" font-family="Arial" font-size="25" font-weight="800">¿Cadenas sin óxido?</text>
<circle cx="107" cy="1175" r="10" fill="#00754a"/><text x="107" y="1181" text-anchor="middle" fill="white" font-family="Arial" font-size="15" font-weight="900">✓</text>
<text x="130" y="1182" fill="#17483d" font-family="Arial" font-size="25" font-weight="800">¿Recorrido genera buena experiencia?</text>
<rect x="95" y="1510" width="890" height="54" rx="27" fill="white" opacity=".92"/><text x="540" y="1546" text-anchor="middle" fill="#006241" font-family="Arial" font-size="26" font-weight="900">Observa · Corrige · Comunica · Registra en Daily Record Book</text></svg>