<svg xmlns="http://www.w3.org/2000/svg" width="1080" height="1920" viewBox="0 0 1080 1920">
  <defs>
    <linearGradient id="bg" x1="0" x2="1" y1="0" y2="1"><stop stop-color="#fffaf0"/><stop offset="0.55" stop-color="#f7f1e5"/><stop offset="1" stop-color="#e8f2ed"/></linearGradient>
    <linearGradient id="hero" x1="0" x2="1"><stop stop-color="#003b2f"/><stop offset="1" stop-color="#006241"/></linearGradient>
    <filter id="shadow" x="-20%" y="-20%" width="140%" height="140%"><feDropShadow dx="0" dy="18" stdDeviation="18" flood-color="#003b2f" flood-opacity=".18"/></filter>
    <style><![CDATA[
      text{font-family:-apple-system,BlinkMacSystemFont,'Segoe UI',Arial,sans-serif}
      .eyebrow{fill:#f4d58d;font-size:34px;font-weight:900;letter-spacing:4px}
      .title{fill:#ffffff;font-size:76px;font-weight:950}
      .subtitle{fill:#dff4ec;font-size:30px;font-weight:800}
      .central{fill:#003b2f;font-size:54px;font-weight:950}
      .focus{fill:#4e6f64;font-size:29px;font-weight:800}
      .block-title{fill:#003b2f;font-size:34px;font-weight:950}
      .question{fill:#244f44;font-size:28px;font-weight:780}
      .foot{fill:#006241;font-size:26px;font-weight:900}
    ]]></style>
  </defs>
  <rect width="1080" height="1920" fill="url(#bg)"/>
  <circle cx="920" cy="70" r="210" fill="#006241" opacity=".12"/>
  <circle cx="950" cy="110" r="140" fill="#006241" opacity=".14"/>
  <rect x="44" y="46" width="992" height="290" rx="58" fill="url(#hero)" filter="url(#shadow)"/>
  <text x="86" y="128" class="eyebrow">DUTY ROSTER · SÁBADO</text>
  <text x="86" y="218" class="title">📦 BOH</text>
  <text x="86" y="278" class="subtitle">Tiempo sugerido: 10 min · Enfoque visual del día</text>
  <circle cx="930" cy="186" r="68" fill="#ffffff" opacity=".96"/>
  <text x="930" y="210" font-size="72" text-anchor="middle">✓</text>
  <rect x="64" y="365" width="952" height="210" rx="46" fill="#ffffff" stroke="#dbe9e2" stroke-width="3" filter="url(#shadow)"/>
  <text x="104" y="448" class="central">¿Qué debo validar hoy?</text>
  <text x="104" y="504" class="focus">Equipos críticos y limpieza profunda de fin de semana</text>
  <rect x="64" y="425" width="952" height="239" rx="34" fill="#f8f1df" stroke="#dbe9e2" stroke-width="3"/><text x="104" y="479" class="block-title">📦 Almacenaje</text><circle cx="112" cy="516" r="13" fill="#006241"/><path d="M105 516 l5 5 l10 -13" fill="none" stroke="white" stroke-width="4" stroke-linecap="round" stroke-linejoin="round"/><text x="142" y="523" class="question">¿Productos protegidos?</text><circle cx="112" cy="564" r="13" fill="#006241"/><path d="M105 564 l5 5 l10 -13" fill="none" stroke="white" stroke-width="4" stroke-linecap="round" stroke-linejoin="round"/><text x="142" y="571" class="question">¿Nada en piso?</text><circle cx="112" cy="612" r="13" fill="#006241"/><path d="M105 612 l5 5 l10 -13" fill="none" stroke="white" stroke-width="4" stroke-linecap="round" stroke-linejoin="round"/><text x="142" y="619" class="question">¿Racks limpios?</text><rect x="64" y="688" width="952" height="239" rx="34" fill="#e8f2ed" stroke="#dbe9e2" stroke-width="3"/><text x="104" y="742" class="block-title">🧊 Hielo</text><circle cx="112" cy="779" r="13" fill="#006241"/><path d="M105 779 l5 5 l10 -13" fill="none" stroke="white" stroke-width="4" stroke-linecap="round" stroke-linejoin="round"/><text x="142" y="786" class="question">¿Máquina limpia?</text><circle cx="112" cy="827" r="13" fill="#006241"/><path d="M105 827 l5 5 l10 -13" fill="none" stroke="white" stroke-width="4" stroke-linecap="round" stroke-linejoin="round"/><text x="142" y="834" class="question">¿Pala y cubeta exclusivas?</text><circle cx="112" cy="875" r="13" fill="#006241"/><path d="M105 875 l5 5 l10 -13" fill="none" stroke="white" stroke-width="4" stroke-linecap="round" stroke-linejoin="round"/><text x="142" y="882" class="question">¿Sin residuos?</text><rect x="64" y="951" width="952" height="239" rx="34" fill="#fffaf0" stroke="#dbe9e2" stroke-width="3"/><text x="104" y="1005" class="block-title">🍽️ Lavado</text><circle cx="112" cy="1042" r="13" fill="#006241"/><path d="M105 1042 l5 5 l10 -13" fill="none" stroke="white" stroke-width="4" stroke-linecap="round" stroke-linejoin="round"/><text x="142" y="1049" class="question">¿Sanitizadora funcionando?</text><circle cx="112" cy="1090" r="13" fill="#006241"/><path d="M105 1090 l5 5 l10 -13" fill="none" stroke="white" stroke-width="4" stroke-linecap="round" stroke-linejoin="round"/><text x="142" y="1097" class="question">¿Temperatura correcta?</text><circle cx="112" cy="1138" r="13" fill="#006241"/><path d="M105 1138 l5 5 l10 -13" fill="none" stroke="white" stroke-width="4" stroke-linecap="round" stroke-linejoin="round"/><text x="142" y="1145" class="question">¿Área limpia?</text><rect x="64" y="1214" width="952" height="239" rx="34" fill="#eef6f1" stroke="#dbe9e2" stroke-width="3"/><text x="104" y="1268" class="block-title">❄️ Refrigeración</text><circle cx="112" cy="1305" r="13" fill="#006241"/><path d="M105 1305 l5 5 l10 -13" fill="none" stroke="white" stroke-width="4" stroke-linecap="round" stroke-linejoin="round"/><text x="142" y="1312" class="question">¿Thermocron funcionando?</text><circle cx="112" cy="1353" r="13" fill="#006241"/><path d="M105 1353 l5 5 l10 -13" fill="none" stroke="white" stroke-width="4" stroke-linecap="round" stroke-linejoin="round"/><text x="142" y="1360" class="question">¿Temperaturas correctas?</text><circle cx="112" cy="1401" r="13" fill="#006241"/><path d="M105 1401 l5 5 l10 -13" fill="none" stroke="white" stroke-width="4" stroke-linecap="round" stroke-linejoin="round"/><text x="142" y="1408" class="question">¿Ventilas libres?</text>
  <rect x="64" y="1798" width="952" height="72" rx="36" fill="#ffffff" opacity=".82" stroke="#dbe9e2"/>
  <text x="540" y="1846" class="foot" text-anchor="middle">Observa · Corrige · Comunica · Registra en Daily Record Book</text>
</svg>