<svg xmlns="http://www.w3.org/2000/svg" width="1080" height="1920" viewBox="0 0 1080 1920">
  <defs>
    <linearGradient id="bg" x1="0" x2="1" y1="0" y2="1"><stop stop-color="#fffaf0"/><stop offset="0.55" stop-color="#f7f1e5"/><stop offset="1" stop-color="#e8f2ed"/></linearGradient>
    <linearGradient id="hero" x1="0" x2="1"><stop stop-color="#003b2f"/><stop offset="1" stop-color="#006241"/></linearGradient>
    <filter id="shadow" x="-20%" y="-20%" width="140%" height="140%"><feDropShadow dx="0" dy="18" stdDeviation="18" flood-color="#003b2f" flood-opacity=".18"/></filter>
    <style><![CDATA[
      text{font-family:-apple-system,BlinkMacSystemFont,'Segoe UI',Arial,sans-serif}
      .eyebrow{fill:#f4d58d;font-size:34px;font-weight:900;letter-spacing:4px}
      .title{fill:#ffffff;font-size:76px;font-weight:950}
      .subtitle{fill:#dff4ec;font-size:30px;font-weight:800}
      .central{fill:#003b2f;font-size:54px;font-weight:950}
      .focus{fill:#4e6f64;font-size:29px;font-weight:800}
      .block-title{fill:#003b2f;font-size:34px;font-weight:950}
      .question{fill:#244f44;font-size:28px;font-weight:780}
      .foot{fill:#006241;font-size:26px;font-weight:900}
    ]]></style>
  </defs>
  <rect width="1080" height="1920" fill="url(#bg)"/>
  <circle cx="920" cy="70" r="210" fill="#006241" opacity=".12"/>
  <circle cx="950" cy="110" r="140" fill="#006241" opacity=".14"/>
  <rect x="44" y="46" width="992" height="290" rx="58" fill="url(#hero)" filter="url(#shadow)"/>
  <text x="86" y="128" class="eyebrow">DUTY ROSTER · SÁBADO</text>
  <text x="86" y="218" class="title">🥤 CBS</text>
  <text x="86" y="278" class="subtitle">Tiempo sugerido: 5 min · Enfoque visual del día</text>
  <circle cx="930" cy="186" r="68" fill="#ffffff" opacity=".96"/>
  <text x="930" y="210" font-size="72" text-anchor="middle">✓</text>
  <rect x="64" y="365" width="952" height="210" rx="46" fill="#ffffff" stroke="#dbe9e2" stroke-width="3" filter="url(#shadow)"/>
  <text x="104" y="448" class="central">¿Qué debo validar hoy?</text>
  <text x="104" y="504" class="focus">Bebidas frías, hielo y estación lista</text>
  <rect x="64" y="425" width="952" height="191" rx="34" fill="#f8f1df" stroke="#dbe9e2" stroke-width="3"/><text x="104" y="479" class="block-title">🥤 Blender</text><circle cx="112" cy="516" r="13" fill="#006241"/><path d="M105 516 l5 5 l10 -13" fill="none" stroke="white" stroke-width="4" stroke-linecap="round" stroke-linejoin="round"/><text x="142" y="523" class="question">¿Blenders limpios y sin daños?</text><circle cx="112" cy="564" r="13" fill="#006241"/><path d="M105 564 l5 5 l10 -13" fill="none" stroke="white" stroke-width="4" stroke-linecap="round" stroke-linejoin="round"/><text x="142" y="571" class="question">¿Jarras y tapas en buen estado?</text><rect x="64" y="640" width="952" height="191" rx="34" fill="#e8f2ed" stroke="#dbe9e2" stroke-width="3"/><text x="104" y="694" class="block-title">🧊 Hielo</text><circle cx="112" cy="731" r="13" fill="#006241"/><path d="M105 731 l5 5 l10 -13" fill="none" stroke="white" stroke-width="4" stroke-linecap="round" stroke-linejoin="round"/><text x="142" y="738" class="question">¿Palas sanitizadas?</text><circle cx="112" cy="779" r="13" fill="#006241"/><path d="M105 779 l5 5 l10 -13" fill="none" stroke="white" stroke-width="4" stroke-linecap="round" stroke-linejoin="round"/><text x="142" y="786" class="question">¿Ice Bin limpio?</text><rect x="64" y="855" width="952" height="191" rx="34" fill="#fffaf0" stroke="#dbe9e2" stroke-width="3"/><text x="104" y="909" class="block-title">🥤 Vasos y Tapas</text><circle cx="112" cy="946" r="13" fill="#006241"/><path d="M105 946 l5 5 l10 -13" fill="none" stroke="white" stroke-width="4" stroke-linecap="round" stroke-linejoin="round"/><text x="142" y="953" class="question">¿Almacenados correctamente?</text><circle cx="112" cy="994" r="13" fill="#006241"/><path d="M105 994 l5 5 l10 -13" fill="none" stroke="white" stroke-width="4" stroke-linecap="round" stroke-linejoin="round"/><text x="142" y="1001" class="question">¿Sin salpicaduras?</text><rect x="64" y="1070" width="952" height="239" rx="34" fill="#eef6f1" stroke="#dbe9e2" stroke-width="3"/><text x="104" y="1124" class="block-title">🚰 Tarjas</text><circle cx="112" cy="1161" r="13" fill="#006241"/><path d="M105 1161 l5 5 l10 -13" fill="none" stroke="white" stroke-width="4" stroke-linecap="round" stroke-linejoin="round"/><text x="142" y="1168" class="question">¿Sin fugas?</text><circle cx="112" cy="1209" r="13" fill="#006241"/><path d="M105 1209 l5 5 l10 -13" fill="none" stroke="white" stroke-width="4" stroke-linecap="round" stroke-linejoin="round"/><text x="142" y="1216" class="question">¿Lavamanos abastecido?</text><circle cx="112" cy="1257" r="13" fill="#006241"/><path d="M105 1257 l5 5 l10 -13" fill="none" stroke="white" stroke-width="4" stroke-linecap="round" stroke-linejoin="round"/><text x="142" y="1264" class="question">¿Rótulos visibles?</text><rect x="64" y="1333" width="952" height="191" rx="34" fill="#f7fbf8" stroke="#dbe9e2" stroke-width="3"/><text x="104" y="1387" class="block-title">❄️ Refrigeración</text><circle cx="112" cy="1424" r="13" fill="#006241"/><path d="M105 1424 l5 5 l10 -13" fill="none" stroke="white" stroke-width="4" stroke-linecap="round" stroke-linejoin="round"/><text x="142" y="1431" class="question">¿Thermocron funcionando?</text><circle cx="112" cy="1472" r="13" fill="#006241"/><path d="M105 1472 l5 5 l10 -13" fill="none" stroke="white" stroke-width="4" stroke-linecap="round" stroke-linejoin="round"/><text x="142" y="1479" class="question">¿Refrigerador limpio?</text>
  <rect x="64" y="1798" width="952" height="72" rx="36" fill="#ffffff" opacity=".82" stroke="#dbe9e2"/>
  <text x="540" y="1846" class="foot" text-anchor="middle">Observa · Corrige · Comunica · Registra en Daily Record Book</text>
</svg>