<svg xmlns="http://www.w3.org/2000/svg" width="1000" height="760" viewBox="0 0 1000 760">
  <defs><linearGradient id="g" x1="0" x2="1"><stop offset="0" stop-color="#003b2f"/><stop offset="1" stop-color="#006241"/></linearGradient><filter id="s" x="-10%" y="-10%" width="120%" height="120%"><feDropShadow dx="0" dy="14" stdDeviation="16" flood-color="#003b2f" flood-opacity="0.18"/></filter></defs>
  <rect width="1000" height="760" fill="#f7f1e5"/>
  <rect x="34" y="34" width="932" height="692" rx="42" fill="#fffaf0" filter="url(#s)"/>
  <rect x="34" y="34" width="932" height="190" rx="42" fill="url(#g)"/>
  <circle cx="880" cy="48" r="120" fill="#ffffff" opacity="0.08"/>
  <circle cx="906" cy="70" r="86" fill="none" stroke="#ffffff" stroke-width="18" opacity="0.12"/>
  <text x="70" y="88" font-size="24" fill="#f4d58d" font-weight="900" letter-spacing="3">DUTY ROASTER DE HOY</text>
  <text x="70" y="146" font-size="54" fill="#ffffff" font-weight="950">🛡️ Martes · PIC + Lobby</text>
  <text x="70" y="190" font-size="24" fill="#e1f3ec" font-weight="800">Químicos • Sanitizante • Lavado de Manos • Documentación • Control de Plagas • Salud Partners • Lobby • Sanitarios • Condiment Bar • Exterior</text>
  <rect x="70" y="248" width="860" height="36" rx="18" fill="#e8f2ed"/>
  <text x="94" y="273" font-size="21" fill="#006241" font-weight="850">Enfoque: Seguridad alimentaria, cumplimiento, limpieza y experiencia del cliente.</text>
  <rect x="70" y="266" width="860" height="74" rx="22" fill="#ffffff" stroke="#dbe9e2"/><rect x="94" y="285" width="32" height="32" rx="8" fill="none" stroke="#006241" stroke-width="4"/><text x="146" y="300" font-size="24" fill="#003b2f" font-weight="800">¿Químicos almacenados, cerrados, rotulados y lejos de alimentos?</text><rect x="70" y="354" width="860" height="74" rx="22" fill="#ffffff" stroke="#dbe9e2"/><rect x="94" y="373" width="32" height="32" rx="8" fill="none" stroke="#006241" stroke-width="4"/><text x="146" y="388" font-size="24" fill="#003b2f" font-weight="800">¿Cubetas sanitizantes activas, limpias y en concentración correcta?</text><rect x="70" y="442" width="860" height="74" rx="22" fill="#ffffff" stroke="#dbe9e2"/><rect x="94" y="461" width="32" height="32" rx="8" fill="none" stroke="#006241" stroke-width="4"/><text x="146" y="476" font-size="24" fill="#003b2f" font-weight="800">¿Documentación, registros y control de plagas están actualizados?</text><rect x="70" y="530" width="860" height="74" rx="22" fill="#ffffff" stroke="#dbe9e2"/><rect x="94" y="549" width="32" height="32" rx="8" fill="none" stroke="#006241" stroke-width="4"/><text x="146" y="564" font-size="24" fill="#003b2f" font-weight="800">¿Partners aplican lavado de manos, uniforme y salud sin</text><text x="146" y="592" font-size="22" fill="#527167" font-weight="650">desviaciones?</text><rect x="70" y="618" width="860" height="74" rx="22" fill="#ffffff" stroke="#dbe9e2"/><rect x="94" y="637" width="32" height="32" rx="8" fill="none" stroke="#006241" stroke-width="4"/><text x="146" y="652" font-size="24" fill="#003b2f" font-weight="800">¿Lobby, sanitarios, terraza y Condiment Bar listos para clientes?</text>
  <text x="70" y="704" font-size="20" fill="#527167" font-weight="800">Marca desviaciones, corrige y registra seguimiento en Daily Record Book.</text>
  <text x="820" y="704" font-size="20" fill="#c8a15a" font-weight="900">#DistritoKike</text>
</svg>